<svg xmlns="http://www.w3.org/2000/svg" xmlns:xlink="http://www.w3.org/1999/xlink" width="320" zoomAndPan="magnify" viewBox="0 0 240 112.499997" height="150" preserveAspectRatio="xMidYMid meet" version="1.0"><defs><g/><clipPath id="eb9564a92a"><path d="M 12.464844 16.265625 L 90.867188 16.265625 L 90.867188 94.667969 L 12.464844 94.667969 Z M 12.464844 16.265625 " clip-rule="nonzero"/></clipPath></defs><g clip-path="url(#eb9564a92a)"><path fill="#202d10" d="M 51.667969 51.15625 C 49.296875 51.15625 47.355469 53.097656 47.355469 55.46875 C 47.355469 57.839844 49.296875 59.78125 51.667969 59.78125 C 54.058594 59.78125 55.980469 57.839844 55.980469 55.46875 C 55.980469 53.097656 54.058594 51.15625 51.667969 51.15625 Z M 51.667969 16.265625 C 30.007812 16.265625 12.464844 33.808594 12.464844 55.46875 C 12.464844 77.105469 30.007812 94.667969 51.667969 94.667969 C 73.324219 94.667969 90.867188 77.105469 90.867188 55.46875 C 90.867188 33.808594 73.324219 16.265625 51.667969 16.265625 Z M 60.253906 64.050781 L 28.148438 78.988281 L 43.082031 46.882812 L 75.1875 31.949219 Z M 60.253906 64.050781 " fill-opacity="1" fill-rule="nonzero"/></g><g fill="#202d10" fill-opacity="1"><g transform="translate(101.513481, 49.267592)"><g><path d="M 21.015625 2.265625 C 19.878906 2.265625 18.921875 1.976562 18.140625 1.40625 C 17.367188 0.832031 16.738281 0.109375 16.25 -0.765625 C 15.757812 -1.640625 15.398438 -2.59375 15.171875 -3.625 C 14.953125 -4.664062 14.84375 -5.65625 14.84375 -6.59375 C 11.625 -0.6875 8 2.265625 3.96875 2.265625 C -0.144531 2.265625 -2.203125 -1.035156 -2.203125 -7.640625 C -2.203125 -10.453125 -1.925781 -13.242188 -1.375 -16.015625 C -0.820312 -18.785156 -0.222656 -21.535156 0.421875 -24.265625 C 0.503906 -24.585938 0.585938 -24.910156 0.671875 -25.234375 C 0.753906 -25.566406 0.835938 -25.914062 0.921875 -26.28125 L 1.59375 -28.65625 C 1.789062 -29.226562 2.15625 -29.515625 2.6875 -29.515625 L 2.8125 -29.515625 L 3 -29.453125 C 3.519531 -29.328125 3.78125 -28.960938 3.78125 -28.359375 L 3.78125 -28.109375 L 3.484375 -27.1875 C 2.546875 -24.132812 1.738281 -20.957031 1.0625 -17.65625 C 0.394531 -14.351562 0.0625 -11.113281 0.0625 -7.9375 C 0.0625 -2.644531 1.566406 0 4.578125 0 C 6.210938 0 7.679688 -0.671875 8.984375 -2.015625 C 10.285156 -3.359375 11.425781 -4.96875 12.40625 -6.84375 C 13.382812 -8.71875 14.21875 -10.660156 14.90625 -12.671875 C 15.601562 -14.691406 16.132812 -16.375 16.5 -17.71875 C 16.664062 -18.207031 16.828125 -18.726562 16.984375 -19.28125 C 17.148438 -19.832031 17.316406 -20.410156 17.484375 -21.015625 L 17.78125 -22.359375 C 17.863281 -22.609375 17.925781 -22.820312 17.96875 -23 C 18.007812 -23.1875 18.050781 -23.34375 18.09375 -23.46875 C 18.289062 -24.039062 18.65625 -24.328125 19.1875 -24.328125 L 19.3125 -24.328125 L 19.5 -24.265625 C 20.019531 -24.140625 20.28125 -23.75 20.28125 -23.09375 L 20.28125 -22.859375 C 20.25 -22.773438 20.210938 -22.640625 20.171875 -22.453125 C 20.128906 -22.273438 20.066406 -22.039062 19.984375 -21.75 L 19.5625 -20.234375 C 18.988281 -18.148438 18.4375 -15.96875 17.90625 -13.6875 C 17.375 -11.40625 17.109375 -9.1875 17.109375 -7.03125 C 17.109375 -6.414062 17.160156 -5.710938 17.265625 -4.921875 C 17.367188 -4.128906 17.5625 -3.363281 17.84375 -2.625 C 18.125 -1.894531 18.519531 -1.273438 19.03125 -0.765625 C 19.539062 -0.253906 20.203125 0 21.015625 0 C 22.441406 0 23.742188 -0.351562 24.921875 -1.0625 C 26.109375 -1.78125 27.179688 -2.707031 28.140625 -3.84375 C 29.097656 -4.988281 29.960938 -6.300781 30.734375 -7.78125 C 31.515625 -9.269531 32.1875 -10.789062 32.75 -12.34375 C 33.320312 -13.894531 33.820312 -15.410156 34.25 -16.890625 C 34.675781 -18.378906 35.035156 -19.695312 35.328125 -20.84375 L 36.484375 -25.171875 C 36.847656 -26.722656 37.15625 -27.882812 37.40625 -28.65625 C 37.601562 -29.226562 37.96875 -29.515625 38.5 -29.515625 L 38.625 -29.515625 L 38.796875 -29.453125 C 39.285156 -29.285156 39.53125 -28.921875 39.53125 -28.359375 L 39.53125 -28.109375 C 39.414062 -27.660156 39.265625 -27.109375 39.078125 -26.453125 C 38.890625 -25.804688 38.695312 -25.035156 38.5 -24.140625 L 37.28125 -19.4375 C 36.945312 -18.09375 36.535156 -16.625 36.046875 -15.03125 C 35.566406 -13.445312 35 -11.847656 34.34375 -10.234375 C 33.6875 -8.628906 32.941406 -7.070312 32.109375 -5.5625 C 31.273438 -4.050781 30.316406 -2.710938 29.234375 -1.546875 C 28.160156 -0.390625 26.941406 0.53125 25.578125 1.21875 C 24.210938 1.914062 22.691406 2.265625 21.015625 2.265625 Z M 21.015625 2.265625 "/></g></g></g><g fill="#202d10" fill-opacity="1"><g transform="translate(140.685209, 49.267592)"><g><path d="M 29.765625 -14.78125 C 30.453125 -14.78125 30.796875 -14.394531 30.796875 -13.625 L 30.796875 -13.4375 C 30.753906 -13.320312 30.691406 -13.140625 30.609375 -12.890625 C 30.003906 -10.691406 28.96875 -8.664062 27.5 -6.8125 C 26.03125 -4.957031 24.328125 -3.359375 22.390625 -2.015625 C 20.460938 -0.671875 18.363281 0.375 16.09375 1.125 C 13.832031 1.882812 11.582031 2.265625 9.34375 2.265625 C 5.882812 2.265625 3.113281 1.398438 1.03125 -0.328125 C -1.039062 -2.066406 -2.078125 -4.75 -2.078125 -8.375 C -2.078125 -10.738281 -1.617188 -13.171875 -0.703125 -15.671875 C 0.210938 -18.179688 1.484375 -20.453125 3.109375 -22.484375 C 4.742188 -24.523438 6.660156 -26.207031 8.859375 -27.53125 C 11.054688 -28.851562 13.441406 -29.515625 16.015625 -29.515625 C 18.128906 -29.515625 19.773438 -28.8125 20.953125 -27.40625 C 22.140625 -26 22.734375 -24.28125 22.734375 -22.25 C 22.734375 -20.375 22.273438 -18.640625 21.359375 -17.046875 C 20.441406 -15.460938 19.257812 -14.109375 17.8125 -12.984375 C 16.363281 -11.867188 14.753906 -10.992188 12.984375 -10.359375 C 11.210938 -9.722656 9.453125 -9.40625 7.703125 -9.40625 C 4.972656 -9.40625 2.566406 -10.140625 0.484375 -11.609375 C 0.398438 -10.992188 0.328125 -10.410156 0.265625 -9.859375 C 0.210938 -9.316406 0.1875 -8.800781 0.1875 -8.3125 C 0.1875 -2.769531 3.179688 0 9.171875 0 C 11.242188 0 13.304688 -0.34375 15.359375 -1.03125 C 17.421875 -1.726562 19.335938 -2.6875 21.109375 -3.90625 C 22.878906 -5.132812 24.425781 -6.601562 25.75 -8.3125 C 27.082031 -10.019531 28.03125 -11.894531 28.59375 -13.9375 C 28.800781 -14.5 29.191406 -14.78125 29.765625 -14.78125 Z M 16.015625 -27.25 C 14.222656 -27.25 12.53125 -26.851562 10.9375 -26.0625 C 9.351562 -25.269531 7.914062 -24.238281 6.625 -22.96875 C 5.34375 -21.707031 4.222656 -20.289062 3.265625 -18.71875 C 2.304688 -17.15625 1.582031 -15.582031 1.09375 -14 C 2.96875 -12.445312 5.128906 -11.671875 7.578125 -11.671875 C 9.003906 -11.671875 10.46875 -11.914062 11.96875 -12.40625 C 13.476562 -12.894531 14.875 -13.597656 16.15625 -14.515625 C 17.445312 -15.429688 18.5 -16.53125 19.3125 -17.8125 C 20.125 -19.09375 20.53125 -20.53125 20.53125 -22.125 C 20.53125 -23.550781 20.148438 -24.757812 19.390625 -25.75 C 18.640625 -26.75 17.515625 -27.25 16.015625 -27.25 Z M 16.015625 -27.25 "/></g></g></g><g fill="#202d10" fill-opacity="1"><g transform="translate(94.979863, 91.916546)"><g><path d="M 4.074219 -1.5625 L 4.746094 -0.503906 L 5.804688 0.113281 L 6.921875 0.0546875 L 9.15625 0.167969 L 10.328125 0.0546875 L 12.671875 0.113281 L 13.84375 -0.558594 L 14.289062 -1.617188 L 14.402344 -2.679688 L 14.289062 -3.90625 L 14.289062 -13.789062 L 14.792969 -14.960938 L 15.964844 -15.683594 L 22.550781 -15.742188 L 23.722656 -15.574219 L 24.726562 -15.574219 L 25.789062 -14.960938 L 26.347656 -13.898438 L 26.402344 -1.5625 L 27.015625 -0.667969 L 28.636719 0.0546875 L 31.539062 0.0546875 L 32.65625 -0.0546875 L 34.945312 0.113281 L 36.003906 -0.613281 L 36.675781 -1.5625 L 36.5625 -6.644531 L 36.730469 -8.429688 L 36.5625 -9.320312 L 36.617188 -37.34375 L 36.117188 -38.515625 L 35 -38.960938 L 28.578125 -39.019531 L 26.960938 -38.628906 L 26.402344 -37.289062 L 26.347656 -35.167969 L 26.457031 -34.21875 L 26.347656 -31.929688 L 26.515625 -30.867188 L 26.457031 -26.515625 L 25.84375 -25.398438 L 24.726562 -24.785156 L 23.667969 -24.953125 L 21.492188 -24.726562 L 20.320312 -24.839844 L 19.3125 -24.726562 L 16.019531 -24.785156 L 14.960938 -25.285156 L 14.402344 -26.347656 L 14.347656 -27.574219 L 14.347656 -28.746094 L 14.289062 -29.753906 L 14.347656 -34.105469 L 14.457031 -35.335938 L 14.347656 -37.398438 L 13.84375 -38.460938 L 12.671875 -39.074219 L 11.441406 -38.960938 L 5.917969 -39.074219 L 4.6875 -38.515625 L 4.128906 -37.398438 L 4.019531 -36.171875 L 4.128906 -31.816406 L 4.019531 -30.699219 L 4.242188 -28.414062 L 4.128906 -26.292969 L 4.1875 -24.953125 L 4.074219 -23.835938 L 4.074219 -7.144531 L 4.242188 -6.140625 Z M 4.074219 -1.5625 "/></g></g></g><g fill="#202d10" fill-opacity="1"><g transform="translate(134.721063, 91.916546)"><g><path d="M 2.679688 -1.617188 L 3.238281 -0.445312 L 4.355469 -0.0546875 L 20.933594 0.0546875 L 21.992188 -0.503906 L 22.605469 -1.507812 L 22.605469 -2.734375 L 22.496094 -3.738281 L 22.664062 -7.144531 L 21.882812 -8.09375 L 18.140625 -9.265625 L 17.527344 -10.382812 L 17.640625 -14.960938 L 17.414062 -17.191406 L 17.640625 -19.535156 L 17.527344 -21.210938 L 17.640625 -22.941406 L 17.527344 -24.003906 L 17.640625 -25.117188 L 17.527344 -26.292969 L 17.527344 -28.636719 L 18.140625 -29.640625 L 19.203125 -30.253906 L 20.429688 -30.308594 L 21.492188 -30.925781 L 22.105469 -31.984375 L 22.105469 -35.277344 L 22.214844 -36.28125 L 22.105469 -37.398438 L 21.660156 -38.515625 L 19.871094 -39.019531 L 12.78125 -39.074219 L 11.554688 -38.960938 L 8.148438 -39.019531 L 7.089844 -38.960938 L 4.914062 -39.074219 L 3.683594 -38.515625 L 3.070312 -37.34375 L 3.070312 -36.28125 L 2.957031 -35.335938 L 2.957031 -34.105469 L 3.070312 -32.988281 L 3.070312 -31.929688 L 3.628906 -30.867188 L 7.035156 -29.695312 L 7.757812 -28.691406 L 7.589844 -23.945312 L 7.648438 -22.996094 L 7.816406 -21.714844 L 7.757812 -19.425781 L 7.648438 -18.308594 L 7.871094 -16.132812 L 7.589844 -15.015625 L 7.816406 -12.617188 L 7.703125 -10.4375 L 7.144531 -9.210938 L 3.460938 -8.039062 L 2.789062 -6.976562 L 2.679688 -5.917969 Z M 2.679688 -1.617188 "/></g></g></g><g fill="#202d10" fill-opacity="1"><g transform="translate(158.945263, 91.916546)"><g><path d="M 4.296875 -1.675781 L 4.6875 -0.503906 L 6.308594 0.113281 L 12.167969 0.0546875 L 13.789062 -0.503906 L 14.347656 -1.730469 L 14.179688 -8.484375 L 14.289062 -9.710938 L 14.289062 -13.171875 L 14.792969 -14.179688 L 16.1875 -14.847656 L 17.863281 -14.511719 L 18.921875 -13.675781 L 21.210938 -9.878906 L 22.605469 -6.976562 L 23.277344 -6.027344 L 23.78125 -5.078125 L 24.503906 -4.128906 L 26.011719 -1.226562 L 27.074219 -0.390625 L 28.972656 0 L 35.167969 0 L 36.339844 0.113281 L 37.289062 -0.390625 L 37.566406 -1.675781 L 37.066406 -3.015625 L 36.28125 -3.851562 L 35.726562 -4.800781 L 35.277344 -5.859375 L 34.441406 -6.808594 L 33.378906 -8.707031 L 32.710938 -9.601562 L 32.265625 -10.605469 L 31.59375 -11.609375 L 29.976562 -14.511719 L 28.023438 -17.304688 L 28.023438 -18.53125 L 28.523438 -19.816406 L 29.527344 -20.429688 L 31.148438 -22.050781 L 32.375 -23.945312 L 32.933594 -25.007812 L 33.214844 -26.011719 L 33.714844 -27.183594 L 34.273438 -29.304688 L 34.328125 -30.367188 L 34.664062 -32.710938 L 34.554688 -33.9375 L 34.777344 -35 L 34.71875 -37.230469 L 34.273438 -38.515625 L 33.101562 -39.128906 L 28.023438 -38.960938 L 26.402344 -39.128906 L 25.0625 -38.460938 L 24.449219 -37.289062 L 24.617188 -33.882812 L 24.335938 -31.539062 L 23.78125 -29.304688 L 23.332031 -28.246094 L 22.605469 -27.40625 L 21.9375 -26.515625 L 21.101562 -25.789062 L 20.09375 -25.175781 L 19.144531 -24.726562 L 16.691406 -24.226562 L 15.351562 -24.171875 L 14.347656 -24.785156 L 14.402344 -25.957031 L 14.234375 -26.960938 L 14.402344 -35.054688 L 14.234375 -36.117188 L 14.179688 -37.230469 L 13.621094 -38.460938 L 12.617188 -39.019531 L 11.441406 -39.128906 L 10.328125 -39.019531 L 5.804688 -39.128906 L 4.914062 -38.40625 L 4.128906 -37.398438 L 4.128906 -36.226562 L 4.242188 -35.109375 L 4.074219 -31.761719 L 4.128906 -30.699219 L 4.296875 -29.585938 L 4.019531 -27.351562 L 4.1875 -26.179688 L 4.296875 -12.78125 L 4.128906 -11.777344 L 4.1875 -10.605469 L 4.019531 -8.371094 L 4.296875 -6.140625 L 4.1875 -4.914062 L 4.242188 -3.796875 L 4.128906 -2.789062 Z M 4.296875 -1.675781 "/></g></g></g><g fill="#202d10" fill-opacity="1"><g transform="translate(196.509613, 91.916546)"><g><path d="M 4.019531 -1.617188 L 4.746094 -0.558594 L 5.804688 0.0546875 L 18.421875 -0.0546875 L 19.425781 0.113281 L 22.832031 -0.0546875 L 26.234375 0.167969 L 27.296875 0.0546875 L 28.46875 -0.503906 L 28.972656 -1.5625 L 29.082031 -2.625 L 29.027344 -6.085938 L 29.136719 -7.144531 L 28.414062 -8.261719 L 26.738281 -8.820312 L 19.371094 -8.929688 L 18.308594 -8.765625 L 17.082031 -8.875 L 15.851562 -8.765625 L 14.679688 -9.433594 L 14.179688 -11.164062 L 14.234375 -13.898438 L 14.738281 -15.070312 L 15.742188 -15.683594 L 17.917969 -15.683594 L 19.035156 -15.796875 L 21.992188 -15.628906 L 23.5 -15.742188 L 24.671875 -15.628906 L 25.675781 -15.683594 L 26.792969 -16.300781 L 27.351562 -17.359375 L 27.464844 -21.769531 L 27.351562 -22.886719 L 26.847656 -23.945312 L 25.902344 -24.5625 L 23.667969 -24.617188 L 22.550781 -24.503906 L 21.378906 -24.503906 L 20.09375 -24.617188 L 15.683594 -24.5625 L 14.738281 -25.175781 L 14.066406 -26.179688 L 13.953125 -27.910156 L 14.511719 -29.527344 L 16.242188 -30.03125 L 26.960938 -30.085938 L 28.132812 -30.699219 L 28.746094 -31.707031 L 28.636719 -33.996094 L 28.46875 -35.054688 L 28.523438 -36.28125 L 28.691406 -37.34375 L 28.132812 -38.460938 L 26.960938 -38.960938 L 22.496094 -39.019531 L 21.492188 -38.90625 L 20.375 -39.074219 L 17.917969 -38.960938 L 16.800781 -39.074219 L 14.625 -39.019531 L 13.621094 -39.128906 L 6.308594 -38.960938 L 4.6875 -38.570312 L 4.128906 -37.34375 L 4.242188 -35.109375 L 4.019531 -33.492188 L 4.242188 -30.644531 L 4.128906 -29.472656 L 4.242188 -28.46875 L 4.242188 -18.476562 L 4.074219 -17.304688 L 4.242188 -15.128906 L 4.128906 -12.894531 L 4.296875 -11.722656 L 4.1875 -10.496094 L 4.242188 -9.433594 L 4.074219 -8.429688 L 4.1875 -7.144531 L 4.1875 -6.027344 L 4.296875 -3.851562 L 4.242188 -2.734375 Z M 4.019531 -1.617188 "/></g></g></g></svg>