<svg xmlns="http://www.w3.org/2000/svg" xmlns:xlink="http://www.w3.org/1999/xlink" width="500" zoomAndPan="magnify" viewBox="0 0 375 374.999991" height="500" preserveAspectRatio="xMidYMid meet" version="1.0"><rect x="-37.5" width="450" fill="#ffffff" y="-37.499999" height="449.999989" fill-opacity="1"/><rect x="-37.5" width="450" fill="#ffffff" y="-37.499999" height="449.999989" fill-opacity="1"/><rect x="-37.5" width="450" fill="#ffffff" y="-37.499999" height="449.999989" fill-opacity="1"/><path fill="#fc6e34" d="M 187.5 166.875 C 176.15625 166.875 166.875 176.15625 166.875 187.5 C 166.875 198.84375 176.15625 208.125 187.5 208.125 C 198.9375 208.125 208.125 198.84375 208.125 187.5 C 208.125 176.15625 198.9375 166.875 187.5 166.875 Z M 187.5 0 C 83.90625 0 0 83.90625 0 187.5 C 0 291 83.90625 375 187.5 375 C 291.09375 375 375 291 375 187.5 C 375 83.90625 291.09375 0 187.5 0 Z M 228.5625 228.5625 L 75 300 L 146.4375 146.4375 L 300 75 Z M 228.5625 228.5625 " fill-opacity="1" fill-rule="nonzero"/></svg>